# xmcd
#
# Track frame offsets:
#	183
#	31833
#	46458
#	68058
#	88233
#	112308
#	130158
#	147858
#	163758
#	179433
#	187533
#	201108
#	211308
#	227958
#
# Disc length: 3312 seconds
#
# Revision: 1
# Processed by: cddbd v1.4PL0 Copyright (c) Steve Scherf et al.
# Submitted via: EasyCDDAExtractor 6.0.0.1
#
DISCID=c90cee0e
DTITLE=Abbado-LSO,Otterloo-HPO-ORH - Bizet works
DYEAR=1900
DGENRE=
TTITLE0=L'Arlesienne,suite 1-I
TTITLE1=L'Arlesienne,suite 1-II
TTITLE2=L'Arlesienne,suite 1-III
TTITLE3=L'Arlesienne,suite 1-IV
TTITLE4=L'Arlesienne,suite 2-I
TTITLE5=L'Arlesienne,suite 2-II
TTITLE6=L'Arlesienne,suite 2-III
TTITLE7=L'Arlesienne,suite 2-IV
TTITLE8=Carmen suite 1-I
TTITLE9=Carmen suite 1-II
TTITLE10=Carmen suite 1-III
TTITLE11=Carmen suite 1-IV
TTITLE12=Carmen suite 2-Chor of street Urchins
TTITLE13=Carmen suite 2-Zigeunerlied
EXTD=
EXTT0=
EXTT1=
EXTT2=
EXTT3=
EXTT4=
EXTT5=
EXTT6=
EXTT7=
EXTT8=
EXTT9=
EXTT10=
EXTT11=
EXTT12=
EXTT13=
PLAYORDER=
